HIERARCHY
ROOT Hips
{
  OFFSET 279.157 85.6768 304.565
  CHANNELS 6 Xposition Yposition Zposition Zrotation Xrotation Yrotation
  JOINT LeftUpLeg
  {
    OFFSET 8.64259 1.95398 -2.38835
    CHANNELS 3 Zrotation Xrotation Yrotation
    JOINT LeftLeg
    {
      OFFSET 43.7702 0 0
      CHANNELS 3 Zrotation Xrotation Yrotation
      JOINT LeftFoot
      {
        OFFSET 40.6238 0 0
        CHANNELS 3 Zrotation Xrotation Yrotation
        JOINT LeftToeBase
        {
          OFFSET 12.7242 0 0
          CHANNELS 3 Zrotation Xrotation Yrotation
          End Site
          {
            OFFSET 0 0 0
          }
        }
      }
    }
  }
  JOINT RightUpLeg
  {
    OFFSET -8.2249 1.95398 -2.59336
    CHANNELS 3 Zrotation Xrotation Yrotation
    JOINT RightLeg
    {
      OFFSET 43.5653 0 0
      CHANNELS 3 Zrotation Xrotation Yrotation
      JOINT RightFoot
      {
        OFFSET 40.6238 0 0
        CHANNELS 3 Zrotation Xrotation Yrotation
        JOINT RightToeBase
        {
          OFFSET 12.7242 0 0
          CHANNELS 3 Zrotation Xrotation Yrotation
          End Site
          {
            OFFSET 0 0 0
          }
        }
      }
    }
  }
  JOINT Spine
  {
    OFFSET 0.165834 0.87714 6.61349
    CHANNELS 3 Zrotation Xrotation Yrotation
    JOINT Spine1
    {
      OFFSET 7.38963 1.71661e-005 0
      CHANNELS 3 Zrotation Xrotation Yrotation
      JOINT Spine2
      {
        OFFSET 11.9445 1.14441e-005 0
        CHANNELS 3 Zrotation Xrotation Yrotation
        JOINT Spine3
        {
          OFFSET 14.7254 4.19617e-005 0
          CHANNELS 3 Zrotation Xrotation Yrotation
          JOINT Spine4
          {
            OFFSET 10.9679 0 0
            CHANNELS 3 Zrotation Xrotation Yrotation
            JOINT RightShoulder
            {
              OFFSET 2.46616 -1.6653 3.69651
              CHANNELS 3 Zrotation Xrotation Yrotation
              JOINT RightArm
              {
                OFFSET 13.0012 0 0
                CHANNELS 3 Zrotation Xrotation Yrotation
                JOINT RightForeArm
                {
                  OFFSET 28.7848 1.52588e-005 0
                  CHANNELS 3 Zrotation Xrotation Yrotation
                  JOINT RightHand
                  {
                    OFFSET 26.5688 1.52588e-005 0
                    CHANNELS 3 Zrotation Xrotation Yrotation
                    End Site
                    {
                      OFFSET 0 0 0
                    }
                  }
                }
              }
            }
            JOINT LeftShoulder
            {
              OFFSET 2.38034 -1.29275 -3.7523
              CHANNELS 3 Zrotation Xrotation Yrotation
              JOINT LeftArm
              {
                OFFSET 16.3182 6.10351e-005 0
                CHANNELS 3 Zrotation Xrotation Yrotation
                JOINT LeftForeArm
                {
                  OFFSET 27.0901 0 0
                  CHANNELS 3 Zrotation Xrotation Yrotation
                  JOINT LeftHand
                  {
                    OFFSET 24.5451 1.52588e-005 0
                    CHANNELS 3 Zrotation Xrotation Yrotation
                    End Site
                    {
                      OFFSET 0 0 0
                    }
                  }
                }
              }
            }
            JOINT Neck
            {
              OFFSET 5.0226 -0.0266342 0
              CHANNELS 3 Zrotation Xrotation Yrotation
              JOINT Head
              {
                OFFSET 6.69364 2.86102e-005 0
                CHANNELS 3 Zrotation Xrotation Yrotation
                End Site
                {
                  OFFSET 0 0 0
                }
              }
            }
          }
        }
      }
    }
  }
}
MOTION
Frames:	18
Frame Time:	0.0416667
23.3528 101.926 11.5943 -157.445 -81.028 -158.376 -173.072 -4.25839 90.7512 -13.1261 -2.59369 -0.448163 69.3543 5.45292 -3.68711 19.6181 -8.11987 9.0125 173.511 -3.0268 87.6756 -15.1061 -9.82755 -1.44212 66.7926 -3.87424 0.745796 27.8976 -0.0731788 2.74146 0.309453 7.62427 -90.0429 11.6258 0.595497 -0.147308 -0.0449852 0.588439 -0.173386 -22.5812 0.612233 0.0384732 -2.56859 0.612245 0.038482 88.1036 -32.1027 -109.607 41.2837 -11.8198 -4.83861 3.16613 -25.7583 -14.7697 -22.5774 -1.02491 -6.37746 -88.2719 -52.8189 81.8258 -25.4502 12.1546 -10.8601 -0.241236 2.94604 -7.34866 4.46812 -0.254209 -7.10802 5.3206 -1.51047 -1.16265 -5.5886 -1.33123 1.9335 
23.1472 101.922 11.7115 -160.185 -81.0937 -161.428 -173.299 -4.6114 90.4779 -12.6499 -2.41859 -0.275041 69.1013 5.61248 -3.13343 19.6315 -7.6155 7.65047 173.131 -3.07976 87.341 -15.4911 -11.4964 -1.3104 66.6326 -4.03323 -0.80081 27.5807 -0.0605651 3.37305 0.314898 7.6082 -90.0992 11.6582 0.579908 -0.2581 -0.0126765 0.567984 -0.283372 -22.5488 0.630667 -0.0718702 -2.53618 0.630662 -0.0718765 88.7993 -31.0489 -108.7 42.1121 -11.9571 -4.48856 3.38232 -26.09 -14.2843 -23.1881 -1.11634 -5.9677 -88.9235 -53.8439 81.0677 -25.0223 11.4565 -9.70363 0.38575 4.42644 -8.30027 0.108814 -0.203742 -9.80558 4.76469 -1.60012 -0.0483224 -5.57664 -1.61038 1.38996 
22.8332 101.952 11.9218 -161.257 -81.157 -162.532 -173.503 -4.97345 90.4848 -12.1029 -2.45168 0.0432491 68.771 5.37418 -3.40326 19.7576 -7.66798 8.02291 172.985 -3.29272 87.381 -15.4935 -11.2597 -1.10787 66.8298 -4.06727 -0.638733 27.3603 0.00642968 3.38424 0.336708 7.60625 -90.0773 11.662 0.633502 -0.220297 -0.00882671 0.62319 -0.247964 -22.5452 0.67042 -0.0197069 -2.53253 0.670417 -0.0197109 88.8248 -31.4261 -108.499 41.8882 -11.0276 -4.52179 4.06991 -26.3968 -13.173 -23.501 -0.743859 -8.27897 -88.9411 -53.0996 80.9055 -24.7374 12.6905 -9.05857 -0.49336 2.89502 -7.98558 2.59026 -0.19325 -6.61538 4.94016 -1.64404 -0.794684 -5.98171 -1.52536 1.48082 
22.5111 101.939 12.0016 -161.918 -81.3047 -163.243 -173.498 -4.87105 90.6063 -12.0904 -2.03156 0.0975801 68.5424 5.24643 -3.28455 20.0422 -7.67966 8.57525 173.088 -3.33364 87.5526 -15.3964 -11.0015 -1.0999 66.9432 -4.17376 -0.66322 27.3774 -0.00956027 3.45984 0.309982 7.57516 -90.1125 11.7244 0.563768 -0.283489 0.0535074 0.550747 -0.308031 -22.4826 0.622905 -0.100942 -2.46991 0.622902 -0.100945 88.7425 -31.0851 -108.796 41.6108 -11.5097 -4.41701 3.65646 -27.4877 -13.4217 -23.6848 -0.892905 -7.72155 -89.0572 -53.8837 80.8829 -24.852 12.0797 -8.38733 -0.324116 2.95267 -7.31221 1.33798 -0.177062 -7.08389 4.83824 -1.5275 -0.220006 -5.73022 -1.50409 1.23077 
22.2955 101.926 11.9837 -165.708 -81.3132 -167.149 -173.384 -4.83605 90.7621 -12.3091 -1.56532 0.0550685 68.6656 5.30444 -3.45459 20.4119 -7.3685 8.38439 172.88 -3.42795 87.473 -15.5762 -10.5525 -0.886883 67.1161 -4.27111 -0.668168 27.2794 -0.0289688 3.8116 0.261319 7.59593 -90.1089 11.6826 0.468744 -0.266101 0.0117296 0.456576 -0.286479 -22.5241 0.527042 -0.112913 -2.5114 0.527045 -0.112924 88.8506 -31.1263 -108.569 41.5784 -11.5028 -4.48574 3.58554 -25.7086 -13.7582 -23.8617 -0.80995 -7.6198 -89.1165 -53.9098 80.8029 -25.4287 11.7922 -8.06503 -0.0320364 3.98282 -7.605 0.423969 -0.14103 -6.43881 4.77293 -1.69246 -0.498062 -5.25662 -1.61089 1.22745 
22.1314 101.937 12.0732 -166.031 -81.0897 -167.655 -173.259 -5.26104 90.7886 -12.0719 -1.43613 -0.0413325 68.5518 5.32159 -3.47444 19.9719 -7.59741 8.21696 172.784 -3.62341 87.3449 -15.7648 -10.6056 -0.904152 67.2984 -4.30942 -0.637021 27.3793 -0.0404762 3.67707 0.267263 7.60964 -90.0949 11.6551 0.487135 -0.240009 -0.0157586 0.476104 -0.261218 -22.5516 0.536747 -0.0825024 -2.53897 0.536746 -0.0825014 88.7792 -30.9573 -108.776 41.787 -11.4437 -4.45641 3.4142 -25.6579 -13.8029 -24.1976 -0.783377 -7.74511 -89.0446 -53.8601 80.8971 -25.969 11.6627 -7.86533 0.304974 5.19202 -8.37891 1.10804 -0.113295 -5.28239 4.84391 -1.78131 -0.335437 -5.69478 -1.72681 1.04833 
22.0295 101.908 12.1099 -166.302 -81.3104 -167.755 -173.275 -4.87705 90.969 -12.3923 -1.35858 0.0642091 68.711 5.35067 -3.57656 19.8703 -7.81806 8.64325 173.006 -3.60141 87.6256 -15.4341 -10.4851 -0.925274 66.9133 -4.06255 -0.32255 28.2933 -0.26179 3.20437 0.258345 7.58383 -90.1136 11.7069 0.46059 -0.274581 0.0360038 0.44806 -0.294596 -22.4997 0.521818 -0.123456 -2.4871 0.521815 -0.123468 88.7096 -31.1668 -108.826 41.6214 -11.6739 -4.56341 3.6241 -25.2242 -13.5872 -25.2761 -0.648934 -8.2719 -88.9277 -53.6619 81.0286 -25.9718 11.5255 -8.21845 0.10815 2.65363 -7.50549 -0.373872 -0.160151 -8.2302 4.63996 -1.83965 -0.610415 -5.6442 -1.73775 1.12664 
22.0094 101.905 12.0973 -167.17 -81.4233 -168.4 -173.073 -4.63101 91.2922 -12.5781 -0.993653 -0.0241155 68.6884 5.3422 -3.56076 20.3719 -7.40439 8.4094 173.193 -3.59091 87.9396 -15.4122 -10.0952 -0.910566 67.0042 -4.13771 -0.433601 27.8009 -0.110225 3.22915 0.242085 7.56205 -90.1429 11.7504 0.414407 -0.328548 0.0794407 0.399544 -0.346467 -22.4561 0.49398 -0.188809 -2.44346 0.493988 -0.188809 88.8314 -31.2368 -108.562 41.7151 -11.9402 -4.61313 3.71927 -23.9938 -13.6312 -25.5553 -0.559984 -8.34023 -89.0401 -53.5851 80.8528 -25.6384 11.762 -8.13879 -0.0133829 1.51316 -8.07829 -0.26184 -0.173703 -8.83816 4.50113 -1.84292 -0.685575 -5.65212 -1.73204 1.22648 
22.159 101.946 12.1088 -168.671 -80.9269 -169.976 -172.899 -5.17732 91.3077 -12.6338 -0.8261 -0.162413 68.8799 5.39869 -3.46763 20.1095 -7.43807 8.02291 173.028 -4.19967 87.7367 -15.3216 -10.028 -0.941946 67.1556 -4.28848 -0.665378 27.1088 0.0430159 3.67487 0.24694 7.62383 -90.1407 11.6268 0.425305 -0.324595 -0.0441348 0.41061 -0.343013 -22.5797 0.503202 -0.181765 -2.56707 0.503198 -0.181766 88.9767 -31.1413 -108.319 41.6578 -11.9036 -4.59707 4.11899 -26.0714 -13.1232 -25.0742 -0.620559 -8.70543 -89.065 -54.0005 80.8935 -24.9044 11.6449 -8.58046 0.136484 1.92631 -8.42572 0.682708 -0.178938 -7.68402 4.69674 -1.74878 -0.419775 -5.91713 -1.68057 0.992472 
22.3116 101.926 11.9767 -169.605 -81.0978 -170.94 -173.042 -4.86698 91.1265 -12.7488 -0.575681 -0.139996 68.7251 5.36528 -3.33774 20.3426 -7.50939 8.65247 172.779 -3.91007 87.5078 -15.3748 -10.0994 -0.754963 67.0533 -4.21084 -0.470961 27.3962 -0.0136145 3.44748 0.230063 7.60202 -90.1411 11.6703 0.391476 -0.32214 -0.000588365 0.376917 -0.339061 -22.5361 0.470189 -0.189598 -2.52343 0.470193 -0.189593 88.8308 -30.9623 -108.674 41.5704 -11.8797 -4.45263 4.4095 -28.1753 -13.0633 -24.7309 -0.884679 -7.93749 -89.006 -54.3652 81.0449 -24.0511 11.6463 -8.98232 0.142231 3.1698 -8.42306 0.901091 -0.191237 -7.91036 4.55477 -1.52273 -0.0855917 -5.76453 -1.51304 0.86744 
22.4393 101.929 11.8056 -169.893 -81.1155 -171.006 -173.102 -4.53845 91.2009 -13.1368 -0.654803 -0.0216562 68.9022 5.31972 -3.46753 19.5486 -7.85523 8.16256 173.084 -3.94603 87.7945 -15.0625 -9.90892 -0.89525 66.7452 -4.12122 -0.572393 27.769 -0.115773 3.34939 0.269359 7.59554 -90.145 11.6835 0.467787 -0.338027 0.0125635 0.452457 -0.358292 -22.5231 0.547747 -0.181807 -2.51048 0.547751 -0.181803 88.9449 -31.295 -108.319 41.5176 -11.8352 -4.17772 3.93122 -27.9008 -13.9996 -24.0839 -0.945025 -7.53386 -89.2533 -54.0523 80.6335 -23.342 12.6515 -9.20077 -0.438601 3.27137 -8.33995 0.22484 -0.180975 -8.31427 4.49639 -1.76287 -0.858518 -5.66934 -1.63885 1.73088 
22.6538 101.974 11.7082 -171.127 -80.4744 -172.513 -173.226 -5.55384 90.8412 -12.4189 -0.709564 0.0213219 68.6879 5.36229 -3.39936 19.8531 -7.60725 8.02806 172.734 -4.29538 87.3089 -15.5596 -10.16 -0.931443 66.8404 -4.11867 -0.812969 27.5361 -0.0802724 3.61374 0.245624 7.68378 -90.115 11.5068 0.434937 -0.273487 -0.164096 0.42248 -0.292374 -22.6998 0.497018 -0.130132 -2.68713 0.497024 -0.130121 88.7708 -31.2824 -108.661 41.4382 -11.9212 -4.11285 4.08389 -24.8749 -14.6336 -23.9257 -0.879333 -6.94219 -89.319 -54.2796 80.5819 -22.0086 14.1165 -9.39573 -1.29574 3.02911 -8.46668 0.878885 -0.181229 -7.7979 4.52484 -1.76171 -0.709705 -5.61009 -1.66079 1.66421 
22.7575 101.931 11.4529 -170.831 -81.0994 -171.682 -173.243 -4.26869 91.1681 -13.2906 -0.53901 0.111915 68.9499 5.29408 -3.23863 19.8384 -7.62786 8.05853 173.346 -3.82652 88.0385 -14.9514 -9.68922 -1.01025 66.3957 -3.95511 -0.69392 27.76 -0.149028 3.6113 0.262403 7.61145 -90.1609 11.6515 0.446586 -0.367113 -0.0193806 0.429993 -0.386426 -22.555 0.536268 -0.215921 -2.54233 0.536276 -0.215927 88.7155 -31.4201 -108.713 41.552 -11.5986 -4.24177 3.71984 -28.2365 -13.8267 -24.2014 -0.936252 -7.6862 -89.4368 -53.7146 80.3061 -22.6971 13.3548 -9.42204 -0.906351 3.82364 -7.75121 0.937369 -0.183212 -7.57694 4.20289 -1.91199 -1.18963 -5.4376 -1.73016 1.85127 
22.8948 101.938 11.2926 -170.536 -81.1744 -171.369 -173.385 -4.08043 91.0018 -13.3549 -0.768243 0.179384 69.0302 5.32631 -3.24423 19.51 -7.97132 8.41101 173.343 -3.58613 88.0179 -15.0908 -9.74936 -1.01604 66.3636 -3.968 -0.861833 27.6041 -0.0811621 3.46279 0.244802 7.60753 -90.1582 11.6594 0.412787 -0.358337 -0.0115389 0.396626 -0.376169 -22.547 0.501398 -0.21771 -2.5344 0.501404 -0.217709 88.5445 -31.518 -109.002 41.5246 -11.7771 -4.25092 2.66505 -27.6181 -14.5272 -23.4997 -0.883684 -7.8521 -89.2121 -53.6551 80.6181 -22.8712 13.0895 -9.14243 -0.687178 4.01707 -8.1044 0.685603 -0.181326 -7.77983 3.95139 -1.64244 -0.95212 -5.3573 -1.49891 1.55653 
23.0914 101.943 11.1708 -168.698 -81.0166 -169.712 -173.593 -4.22409 90.5865 -13.2579 -0.919118 0.18897 68.7386 5.09376 -3.19028 19.5959 -8.11424 8.95702 173.035 -3.50043 87.5411 -15.0714 -10.2659 -0.975972 66.2693 -3.87283 -0.420487 28.7286 -0.331783 2.71155 0.266674 7.6205 -90.1473 11.6335 0.461508 -0.341408 -0.0374233 0.446032 -0.361407 -22.5731 0.542777 -0.186922 -2.56045 0.542773 -0.186933 88.4107 -31.5494 -109.246 41.4574 -12.1307 -4.2348 4.00287 -26.4354 -14.7182 -24.6653 -1.00554 -6.7007 -89.1886 -53.7976 80.6785 -22.9805 12.8341 -9.09212 -0.598146 4.24409 -8.07796 0.336748 -0.17595 -7.97832 3.78467 -1.48596 -0.741429 -5.40051 -1.38435 1.58929 
23.1523 101.979 11.1189 -170.843 -80.8396 -171.949 -173.59 -4.57075 90.5521 -12.9196 -1.06562 0.200349 68.8211 5.13072 -3.30593 18.8503 -8.10817 7.61554 172.945 -3.7201 87.433 -15.1941 -9.94965 -0.998162 66.4842 -3.9941 -0.511902 27.6261 -0.0617697 3.27159 0.240707 7.65026 -90.1424 11.5739 0.412236 -0.326247 -0.0970517 0.397477 -0.344081 -22.6326 0.491227 -0.187273 -2.61994 0.491227 -0.187272 88.4848 -31.543 -109.107 41.3235 -12.103 -4.16849 3.90705 -27.3127 -14.7865 -24.7045 -1.13825 -6.21273 -89.2187 -53.8518 80.6455 -22.8205 13.1484 -9.26623 -0.779116 4.08006 -7.91483 0.143413 -0.169509 -7.9658 3.85019 -1.51202 -0.808801 -5.40599 -1.39989 1.65602 
23.1662 101.981 11.0464 -172.526 -80.8549 -173.407 -173.21 -4.25235 91.0185 -13.4068 -0.224703 -0.0459416 68.9841 5.16586 -3.16685 19.4093 -7.94105 8.147 173.08 -3.91435 87.6875 -14.7067 -9.38898 -0.923052 65.9392 -3.70322 -0.193262 28.2578 -0.246028 3.18394 0.235674 7.64413 -90.1792 11.5862 0.384955 -0.396871 -0.0847542 0.367109 -0.413436 -22.6201 0.486437 -0.262829 -2.60748 0.486434 -0.262831 88.633 -31.3603 -108.895 41.4861 -11.6489 -4.11385 3.81033 -28.1765 -14.5087 -24.4726 -1.12051 -6.59139 -89.3033 -53.9731 80.5469 -22.809 13.3081 -9.42707 -0.853925 3.97469 -7.84828 0.139365 -0.170621 -8.02206 3.74448 -1.63647 -0.844682 -5.42299 -1.52107 1.77086 
23.161 101.953 11.0434 -174.025 -80.3926 -175.286 -173.043 -4.7673 90.8726 -13.378 0.146672 -0.299237 68.9835 5.40904 -3.03312 18.8188 -8.33061 8.15007 172.73 -4.18585 87.1661 -15.0278 -9.87908 -0.939762 66.1486 -3.69056 0.111593 28.5476 -0.17676 1.94763 0.225589 7.68226 -90.1303 11.5098 0.387911 -0.299221 -0.161107 0.374373 -0.316011 -22.6966 0.459911 -0.168804 -2.68397 0.459904 -0.16881 88.6207 -31.478 -108.872 41.4546 -11.7424 -4.0492 4.14099 -28.4241 -14.4142 -24.5442 -1.21516 -6.11758 -89.2993 -53.6498 80.4918 -23.1287 13.2641 -9.24701 -0.784779 3.92233 -8.07246 -0.0490632 -0.165584 -8.1774 3.71029 -1.69123 -0.607341 -5.83492 -1.60223 1.15449 
